#!OML:ASF I:\Actors\actors\Patient Classification 2\Patient 1\Session 1\actor1.ASF
:FULLY-SPECIFIED
:DEGREES
526
root -1.12028 17.6067 5.49992 -7.03248 -2.59531 -9.13059
lowerback 14.3451 0.941436 4.92703
upperback 2.50472 2.22367 3.85679
thorax -5.3584 1.03313 0.875065
lowerneck -8.24604 0.467066 7.81068
upperneck 27.0014 -1.70363 3.27162
head 9.95622 0.35638 -0.367403
rclavicle -1.36913e-014 -4.92986e-014
rhumerus -20.6472 -11.431 -70.7859
rradius 130.194
rwrist -42.3909
rhand -17.8852 -41.9733
rfingers 7.12502
rthumb 8.38115 -71.787
lclavicle -1.36913e-014 -4.92986e-014
lhumerus -53.8731 -15.5633 106.961
lradius 103.302
lwrist 22.688
lhand -8.18377 -14.6752
lfingers 7.12502
lthumb 17.732 14.5363
rfemur 27.838 -7.08492 24.1667
rtibia -23.0029
rfoot -1.53223 -10.9967
rtoes -0.883824
lfemur 33.7343 0.759345 -5.74944
ltibia -37.4859
lfoot 12.4059 16.0831
ltoes -20.3711
527
root -1.09873 17.6441 5.51572 -6.60026 -3.29106 -8.97671
lowerback 14.3032 0.880551 4.48964
upperback 2.34712 2.07435 3.72623
thorax -5.51607 0.962302 1.00996
lowerneck -8.78499 0.166956 7.00229
upperneck 26.7935 -1.96559 3.04589
head 9.96729 0.12389 -0.341945
rclavicle 9.14409e-015 2.26615e-014
rhumerus -20.9679 -11.0902 -71.2533
rradius 129.962
rwrist -41.8416
rhand -17.8304 -41.4615
rfingers 7.12502
rthumb 8.43402 -71.2731
lclavicle 9.14409e-015 2.26615e-014
lhumerus -54.2095 -15.6517 106.94
lradius 102.955
lwrist 22.7422
lhand -7.97513 -14.4333
lfingers 7.12502
lthumb 17.9328 14.76
rfemur 26.9364 -6.54067 24.0348
rtibia -22.103
rfoot -1.87331 -10.6267
rtoes -0.241752
lfemur 33.2236 0.804201 -6.07147
ltibia -36.7664
lfoot 11.888 16.6556
ltoes -20.1743
528
root -1.07248 17.6823 5.5364 -6.33414 -3.97295 -8.7972
lowerback 14.3869 0.819854 4.09908
upperback 2.19844 1.93844 3.57464
thorax -5.72934 0.897178 1.09277
lowerneck -8.93069 -0.0477254 6.74334
upperneck 26.1846 -1.94646 2.06251
head 9.75042 -0.0254222 -0.642289
rclavicle 1.52909e-014 3.62285e-014
rhumerus -21.2822 -10.9692 -71.6829
rradius 129.84
rwrist -41.9755
rhand -17.5334 -41.6644
rfingers 7.12502
rthumb 8.72065 -71.4642
lclavicle 1.52909e-014 3.62285e-014
lhumerus -54.5266 -15.8526 106.936
lradius 102.64
lwrist 22.7995
lhand -7.8147 -14.3459
lfingers 7.12502
lthumb 18.0871 14.8331
rfemur 26.1844 -5.80483 23.8671
rtibia -21.1355
rfoot -2.38139 -10.3888
rtoes 0.309159
lfemur 32.8241 0.621533 -6.50803
ltibia -35.9275
lfoot 11.1952 17.4844
ltoes -19.4976
529
root -1.04594 17.7187 5.55895 -6.07605 -4.61297 -8.5841
lowerback 14.4192 0.773271 3.72036
upperback 2.04468 1.81628 3.39026
thorax -5.91713 0.839747 1.13305
lowerneck -9.03278 -0.287234 6.53321
upperneck 25.532 -1.91555 0.852406
head 9.50903 -0.186444 -1.0228
rclavicle 2.38922e-014 2.93083e-014
rhumerus -21.5201 -11.0837 -71.9316
rradius 129.737
rwrist -42.5214
rhand -17.0615 -41.9933
rfingers 7.12502
rthumb 9.176 -71.7736
lclavicle 2.38922e-014 2.93083e-014
lhumerus -54.8478 -16.14 106.879
lradius 102.462
lwrist 22.8868
lhand -7.65168 -14.4083
lfingers 7.12502
lthumb 18.244 14.7561
rfemur 25.4396 -4.99699 23.6802
rtibia -20.17
rfoot -2.90704 -10.2108
rtoes 0.495138
lfemur 32.4081 0.33464 -6.98697
ltibia -35.0381
lfoot 10.2382 18.4922
ltoes -18.6557
530
root -1.01838 17.7519 5.58035 -5.80697 -5.23671 -8.31204
lowerback 14.4135 0.751898 3.39873
upperback 1.89082 1.72873 3.14266
thorax -6.07941 0.798524 1.06847
lowerneck -9.30031 -0.541805 5.99105
upperneck 25.1498 -1.95016 -0.0533948
head 9.40355 -0.362917 -1.24746
rclavicle -9.93302e-015 -1.91827e-014
rhumerus -21.6338 -11.2596 -71.9901
rradius 129.57
rwrist -42.8581
rhand -16.8471 -41.6622
rfingers 7.12502
rthumb 9.38289 -71.4333
lclavicle -9.93302e-015 -1.91827e-014
lhumerus -55.2151 -16.5014 106.763
lradius 102.466
lwrist 22.8796
lhand -7.41842 -14.4756
lfingers 7.12502
lthumb 18.4684 14.6677
rfemur 24.7096 -4.22216 23.412
rtibia -19.2899
rfoot -3.32248 -10.0181
rtoes 0.886874
lfemur 31.9695 0.0411206 -7.54624
ltibia -34.1495
lfoot 9.30131 19.4213
ltoes -18.3092
531
root -0.991238 17.7806 5.59844 -5.50597 -5.88563 -8.06125
lowerback 14.3686 0.77646 3.15151
upperback 1.74607 1.70983 2.89064
thorax -6.2076 0.790021 0.94466
lowerneck -9.57953 -0.824251 5.27414
upperneck 24.8758 -2.01522 -0.871742
head 9.34259 -0.555221 -1.41504
rclavicle -3.34207e-015 -6.16232e-015
rhumerus -21.5788 -11.5143 -72.0794
rradius 129.481
rwrist -42.9103
rhand -16.7169 -41.4714
rfingers 7.12502
rthumb 9.50848 -71.2369
lclavicle -3.34207e-015 -6.16232e-015
lhumerus -55.4048 -16.9553 106.625
lradius 102.522
lwrist 22.8206
lhand -7.13929 -14.6058
lfingers 7.12502
lthumb 18.7368 14.5118
rfemur 24.0097 -3.46203 23.1666
rtibia -18.5833
rfoot -3.60667 -9.85833
rtoes 1.56678
lfemur 31.5124 -0.0566921 -8.04026
ltibia -33.3257
lfoot 8.49217 20.1162
ltoes -17.971
